<?xml version="1.0" standalone="no"?>
<!DOCTYPE svg PUBLIC "-//W3C//DTD SVG 20010904//EN"
 "http://www.w3.org/TR/2001/REC-SVG-20010904/DTD/svg10.dtd">
<svg version="1.0" xmlns="http://www.w3.org/2000/svg"
 width="947.000000pt" height="947.000000pt" viewBox="0 0 947.000000 947.000000"
 preserveAspectRatio="xMidYMid meet">
<metadata>
Created by potrace 1.14, written by Peter Selinger 2001-2017
</metadata>
<g transform="translate(0.000000,947.000000) scale(0.100000,-0.100000)"
fill="#000000" stroke="none">
<path d="M1667 8884 c-1 -1 -36 -4 -77 -7 -41 -3 -91 -8 -110 -12 -109 -20
-277 -79 -353 -125 -17 -11 -41 -24 -52 -29 -11 -5 -56 -35 -100 -68 -254
-190 -418 -456 -479 -778 -13 -70 -15 -457 -16 -3195 0 -1879 4 -3129 10
-3150 5 -19 11 -50 14 -68 9 -65 59 -209 102 -296 123 -247 315 -437 572 -565
45 -23 82 -39 82 -36 0 3 10 1 21 -6 12 -6 51 -20 87 -30 64 -18 90 -23 200
-38 29 -4 1449 -7 3155 -6 2927 1 3107 2 3182 19 407 90 735 358 890 727 31
74 74 219 83 284 10 69 9 6288 -1 6350 -38 240 -158 477 -330 654 -65 66 -188
171 -202 171 -5 0 -16 6 -24 14 -55 49 -291 144 -408 165 -32 6 -74 13 -93 17
-28 6 -6147 13 -6153 8z"/>
</g>
</svg>
